<svg id="Layer_1" data-name="Layer 1" xmlns="http://www.w3.org/2000/svg" viewBox="0 0 842.08 496.56"><defs><style>.cls-1{fill:#ffcd0c;}.cls-2{fill:#fff;}</style></defs><path class="cls-1" d="M325,236.71,351,205.79a90.41,90.41,0,0,1-15.23-31.92c-10.9,13.49-21.25,26.8-30.41,39.25C261.32,273,229.56,342.75,229,344c33.22-32.84,76.07-80.92,123.57-80.92h41.49l0-.6q.45-13.29.77-25.81Zm226.93-7.59c-12.89,1.3-23.58,11-26.76,19.95-7.32,20.53,13.32,27.41,14.43,27.75-15.92-12.21-2.9-33.43,12.8-33.14,11.66.22,22.11,7.2,27.5,19.1,10.9,23.86,1.83,76-55.57,81.82-50.07,5.09-74.22-35-74.22-81.48,0-18.2-.26-215.75-.26-215.75-13.56,12.13-39.23,39.2-67.06,70.88V160c0,2.76.07,5.41.2,7.93l31.72-37.65s-2.88,147-3.17,154.21c-2.79,74.14,54.45,101.84,87.86,104.91,46.18,4.16,111.29-25.2,113.58-90.76C615.59,248,582.1,226.12,551.88,229.12ZM420,308.8a33.57,33.57,0,0,0,28.82-1.55c-.45.69-5.17,7.72-14.15,8.14C425.82,315.79,420.5,309.48,420,308.8Zm5,23.69a39.34,39.34,0,0,0,34.34-11.71c-.44,1.21-4,10.47-14.15,14C434.75,338.5,426,333.17,425,332.49Zm35.09,21.77c-9.62,5.9-19.47,2.67-20.78,2.22a41,41,0,0,0,32.32-20.68C471.49,337.05,470.2,348.06,460.07,354.26ZM483.9,365c-6.4,8.85-16.36,9.61-17.67,9.69A39,39,0,0,0,487.5,345C487.84,346.22,490.36,356,483.9,365Zm24.19,1.74a22.75,22.75,0,0,1-8.82,15.1,36.55,36.55,0,0,0,4-31.86A22.76,22.76,0,0,1,508.09,366.73Z"/><path class="cls-1" d="M468,253.5c0,3,.08,5.89.24,8.53,30.5-6.2,44.4-36.64,44.86-37.68-.72.57-15.12,11.07-45.1,12.27Z"/><circle class="cls-2" cx="507.13" cy="19.76" r="19.76"/><path class="cls-2" d="M491.2,160c0,49.48-19.56,65-19.56,65s50.71-14.68,50.71-80.42V56.47H491.2Z"/><circle class="cls-2" cx="357.12" cy="19.76" r="19.76"/><path class="cls-2" d="M392.58,225c-1-.29-20.63-6.38-35.16-26.81a82.78,82.78,0,0,1-13.84-33.89,112,112,0,0,1-1.67-19.7V56.47h31.14V160a163.66,163.66,0,0,0,1,18.46C377.93,212.47,391.82,224.36,392.58,225Z"/><path class="cls-2" d="M8.1,444.4a8.28,8.28,0,0,1-5.85-2.09,7.08,7.08,0,0,1,0-10.35,8.28,8.28,0,0,1,5.85-2.09,8.61,8.61,0,0,1,5.84,2,6.41,6.41,0,0,1,2.25,5.05A7.18,7.18,0,0,1,14,442.27,8.12,8.12,0,0,1,8.1,444.4ZM1.59,495.56v-44.9h13v44.9Z"/><path class="cls-2" d="M23.29,483.29v-9.1l27.54-37.06H65l-27,37.06-6.59-1.92h46v11Zm31.46,12.27V483.29l.42-11V461.34H67.94v34.22Z"/><path class="cls-2" d="M90.73,444.4a8.28,8.28,0,0,1-5.85-2.09,7.08,7.08,0,0,1,0-10.35,8.28,8.28,0,0,1,5.85-2.09,8.61,8.61,0,0,1,5.84,2,6.41,6.41,0,0,1,2.25,5.05,7.18,7.18,0,0,1-2.21,5.39A8.1,8.1,0,0,1,90.73,444.4Zm-6.51,51.16v-44.9h13v44.9Z"/><path class="cls-2" d="M153.08,496.56a47.34,47.34,0,0,1-13.44-1.88,31.36,31.36,0,0,1-10.35-4.88l4.59-10.18a33.36,33.36,0,0,0,8.89,4.38,32.65,32.65,0,0,0,10.39,1.71,21.62,21.62,0,0,0,6.47-.79,7.64,7.64,0,0,0,3.63-2.21,5,5,0,0,0,1.17-3.26,4.42,4.42,0,0,0-1.84-3.71,15.14,15.14,0,0,0-4.84-2.26c-2-.58-4.22-1.14-6.64-1.66s-4.84-1.19-7.26-2a30.37,30.37,0,0,1-6.63-3,14.88,14.88,0,0,1-4.89-4.84,14.3,14.3,0,0,1-1.87-7.68,16.28,16.28,0,0,1,2.71-9.14,18.48,18.48,0,0,1,8.18-6.59q5.46-2.48,13.73-2.47a46.07,46.07,0,0,1,10.85,1.3,31.11,31.11,0,0,1,9.43,3.88l-4.17,10.26a36,36,0,0,0-8.18-3.46,30.19,30.19,0,0,0-8-1.13,19,19,0,0,0-6.42.92,7.57,7.57,0,0,0-3.59,2.38,5.47,5.47,0,0,0-1.09,3.38,4.34,4.34,0,0,0,1.84,3.63,14.32,14.32,0,0,0,4.84,2.21c2,.56,4.22,1.12,6.64,1.67s4.84,1.2,7.26,1.92A28.43,28.43,0,0,1,171.1,466a14.88,14.88,0,0,1,4.89,4.84,14.15,14.15,0,0,1,1.87,7.6,15.74,15.74,0,0,1-2.75,9,19.28,19.28,0,0,1-8.22,6.6Q161.42,496.57,153.08,496.56Z"/><path class="cls-2" d="M207.91,496.23a27.64,27.64,0,0,1-12.94-3A22.66,22.66,0,0,1,195,453a27.64,27.64,0,0,1,12.94-3,24.78,24.78,0,0,1,12.35,3,18.1,18.1,0,0,1,7.77,8.47l-10.1,5.43a11.73,11.73,0,0,0-4.39-4.68,11.3,11.3,0,0,0-5.71-1.5,12,12,0,0,0-6,1.5,11,11,0,0,0-4.22,4.26,15.26,15.26,0,0,0,0,13.36,10.91,10.91,0,0,0,4.22,4.25,12.05,12.05,0,0,0,6,1.51,11.48,11.48,0,0,0,5.71-1.47,11.26,11.26,0,0,0,4.39-4.71l10.1,5.51a18.15,18.15,0,0,1-7.77,8.39A24.78,24.78,0,0,1,207.91,496.23Z"/><path class="cls-2" d="M241.71,444.4a8.26,8.26,0,0,1-5.84-2.09,7.08,7.08,0,0,1,0-10.35,8.26,8.26,0,0,1,5.84-2.09,8.64,8.64,0,0,1,5.85,2,6.41,6.41,0,0,1,2.25,5.05,7.18,7.18,0,0,1-2.21,5.39A8.15,8.15,0,0,1,241.71,444.4Zm-6.51,51.16v-44.9h13v44.9Z"/><path class="cls-2" d="M282.61,496.23a28.83,28.83,0,0,1-13.48-3,22.06,22.06,0,0,1-9-8.22A22.36,22.36,0,0,1,257,473.11a22.8,22.8,0,0,1,3.13-12,22.13,22.13,0,0,1,8.55-8.18,26.8,26.8,0,0,1,24.17-.16,20.89,20.89,0,0,1,8.38,8,24,24,0,0,1,3.09,12.48c0,.5,0,1.07-.08,1.71s-.11,1.23-.17,1.79H267.59v-7.59h29.63l-5,2.25a12.4,12.4,0,0,0-1.42-6.09,10.32,10.32,0,0,0-3.92-4.05,11.33,11.33,0,0,0-5.84-1.46,11.57,11.57,0,0,0-5.89,1.46,10.07,10.07,0,0,0-4,4.09,12.84,12.84,0,0,0-1.42,6.22v2a12.59,12.59,0,0,0,1.63,6.47,10.63,10.63,0,0,0,4.59,4.26,15.6,15.6,0,0,0,7,1.46,17,17,0,0,0,6.3-1.09,15.3,15.3,0,0,0,5-3.26l6.93,7.52a20.27,20.27,0,0,1-7.76,5.38A28.8,28.8,0,0,1,282.61,496.23Z"/><path class="cls-2" d="M313,495.56v-44.9h12.44v12.43l-2.34-3.75a16.66,16.66,0,0,1,6.93-6.93A21.4,21.4,0,0,1,340.29,450a20.87,20.87,0,0,1,9.55,2.13,15.49,15.49,0,0,1,6.64,6.51,23.09,23.09,0,0,1,2.42,11.22v25.71h-13v-23.7q0-5.43-2.38-8a8.7,8.7,0,0,0-6.72-2.58,11.77,11.77,0,0,0-5.55,1.29,9,9,0,0,0-3.84,4,14.86,14.86,0,0,0-1.38,6.84v22.2Z"/><path class="cls-2" d="M392.7,496.23a27.64,27.64,0,0,1-12.94-3,22.67,22.67,0,0,1,0-40.32,27.64,27.64,0,0,1,12.94-3,24.78,24.78,0,0,1,12.35,3,18.1,18.1,0,0,1,7.77,8.47l-10.1,5.43a11.78,11.78,0,0,0-4.38-4.68,11.37,11.37,0,0,0-5.72-1.5,12,12,0,0,0-6,1.5,11,11,0,0,0-4.22,4.26,15.26,15.26,0,0,0,0,13.36,10.91,10.91,0,0,0,4.22,4.25,12.05,12.05,0,0,0,6,1.51,11.55,11.55,0,0,0,5.72-1.47,11.3,11.3,0,0,0,4.38-4.71l10.1,5.51a18.15,18.15,0,0,1-7.77,8.39A24.78,24.78,0,0,1,392.7,496.23Z"/><path class="cls-2" d="M442,496.23a28.83,28.83,0,0,1-13.48-3,22.06,22.06,0,0,1-9-8.22,22.36,22.36,0,0,1-3.17-11.89,22.8,22.8,0,0,1,3.13-12,22.13,22.13,0,0,1,8.55-8.18,26.8,26.8,0,0,1,24.17-.16,20.89,20.89,0,0,1,8.38,8,24,24,0,0,1,3.09,12.48c0,.5,0,1.07-.08,1.71s-.11,1.23-.17,1.79H427v-7.59h29.63l-5,2.25a12.4,12.4,0,0,0-1.42-6.09,10.32,10.32,0,0,0-3.92-4.05,11.34,11.34,0,0,0-5.85-1.46,11.56,11.56,0,0,0-5.88,1.46,10.15,10.15,0,0,0-4,4.09,13,13,0,0,0-1.41,6.22v2a12.69,12.69,0,0,0,1.62,6.47,10.74,10.74,0,0,0,4.59,4.26,15.66,15.66,0,0,0,7,1.46,17,17,0,0,0,6.31-1.09,15.3,15.3,0,0,0,5-3.26l6.93,7.52a20.27,20.27,0,0,1-7.76,5.38A28.8,28.8,0,0,1,442,496.23Z"/><path class="cls-2" d="M487.52,496.23a43.7,43.7,0,0,1-11.06-1.38,27.52,27.52,0,0,1-8.39-3.46l4.34-9.35a29,29,0,0,0,7.3,3.13,29.89,29.89,0,0,0,8.31,1.21q4.5,0,6.38-1.09a3.31,3.31,0,0,0,1.88-3,2.56,2.56,0,0,0-1.46-2.38,12.79,12.79,0,0,0-3.88-1.21q-2.42-.42-5.3-.83t-5.8-1.13a19.37,19.37,0,0,1-5.34-2.13,10.74,10.74,0,0,1-3.88-3.84,11.91,11.91,0,0,1-1.46-6.26,12.11,12.11,0,0,1,2.46-7.51,16.27,16.27,0,0,1,7.13-5.13A29.85,29.85,0,0,1,489.94,450a45.15,45.15,0,0,1,9.35,1,25.51,25.51,0,0,1,7.93,2.92l-4.34,9.27a22,22,0,0,0-6.56-2.63,30.41,30.41,0,0,0-6.38-.71c-2.89,0-5,.39-6.34,1.17a3.44,3.44,0,0,0-2,3,2.73,2.73,0,0,0,1.46,2.51,13.55,13.55,0,0,0,3.88,1.33c1.62.33,3.38.63,5.3.88a48.71,48.71,0,0,1,5.81,1.12,21,21,0,0,1,5.3,2.13,11.25,11.25,0,0,1,3.88,3.76,11.5,11.5,0,0,1,1.5,6.22,11.67,11.67,0,0,1-2.51,7.38,16.26,16.26,0,0,1-7.22,5.05A31.52,31.52,0,0,1,487.52,496.23Z"/><path class="cls-2" d="M541.27,495.56V437.13h25.29a32.78,32.78,0,0,1,13.52,2.55,19.78,19.78,0,0,1,8.76,7.3,22.24,22.24,0,0,1,0,22.62,19.8,19.8,0,0,1-8.76,7.31,33,33,0,0,1-13.52,2.54H548.78l6-6.09v22.2Zm13.52-20.7-6-6.43h17q6.26,0,9.35-2.67a9.31,9.31,0,0,0,3.08-7.43,9.43,9.43,0,0,0-3.08-7.51q-3.09-2.67-9.35-2.67h-17l6-6.43Z"/><path class="cls-2" d="M613.3,495.56l-18.86-44.9h13.44l15.69,38.64h-6.68l16.28-38.64h12.52l-19,44.9Z"/><path class="cls-2" d="M646.19,460.67v-10h31.13v10Zm23.7,35.56q-7.93,0-12.35-4.05t-4.43-12.06v-39.4h13V480a6,6,0,0,0,1.51,4.39,5.43,5.43,0,0,0,4.09,1.54,8.37,8.37,0,0,0,5.25-1.67l3.51,9.18a14.25,14.25,0,0,1-4.8,2.13A23.69,23.69,0,0,1,669.89,496.23Z"/><path class="cls-2" d="M712.37,495.56V437.13h13.52v47.41h29.3v11Z"/><path class="cls-2" d="M756.11,460.67v-10h31.13v10Zm23.7,35.56q-7.92,0-12.35-4.05T763,480.12v-39.4h13V480a6.05,6.05,0,0,0,1.5,4.39,5.43,5.43,0,0,0,4.09,1.54,8.39,8.39,0,0,0,5.26-1.67l3.5,9.18a14.07,14.07,0,0,1-4.8,2.13A23.57,23.57,0,0,1,779.81,496.23Z"/><path class="cls-2" d="M815.62,496.23a22.85,22.85,0,0,1-11.44-2.88,21.13,21.13,0,0,1-8-8.06,26.72,26.72,0,0,1,0-24.45,20.79,20.79,0,0,1,8-8A23.14,23.14,0,0,1,815.62,450a19.23,19.23,0,0,1,9.93,2.5,16.45,16.45,0,0,1,6.6,7.6q2.33,5.09,2.33,13a32.5,32.5,0,0,1-2.25,13,16.06,16.06,0,0,1-6.47,7.64A19.6,19.6,0,0,1,815.62,496.23Zm2.25-10.68a11.26,11.26,0,0,0,5.76-1.51,10.9,10.9,0,0,0,4.13-4.3,15.06,15.06,0,0,0,0-13.31,11.13,11.13,0,0,0-4.13-4.26,11.25,11.25,0,0,0-5.76-1.5,11.41,11.41,0,0,0-5.84,1.5,11.13,11.13,0,0,0-4.13,4.26,15.06,15.06,0,0,0,0,13.31A10.9,10.9,0,0,0,812,484,11.42,11.42,0,0,0,817.87,485.55Zm11.77,10v-9.18l.25-13.35-.83-13.28V433.63h13v61.93Z"/></svg>