<svg id="Layer_1" data-name="Layer 1" xmlns="http://www.w3.org/2000/svg" viewBox="0 0 632.86 642.22"><defs><style>.cls-1{fill:#f5a623;}.cls-2{fill:#1b2d5b;}</style></defs><path class="cls-1" d="M158.11,390l42.95-51A148.79,148.79,0,0,1,176,286.49c-18,22.22-35,44.15-50.11,64.67C53.25,449.84.93,564.75,0,566.88c54.74-54.1,125.35-133.33,203.61-133.33H272l0-1q.77-21.92,1.28-42.53ZM532,377.53c-21.23,2.13-38.85,18.07-44.09,32.87-12.06,33.82,21.95,45.16,23.79,45.72C485.47,436,506.92,401,532.79,401.51c19.21.37,36.43,11.87,45.32,31.48,18,39.31,3,125.24-91.58,134.82C404,576.2,364.25,510.22,364.25,433.55c0-30-.43-355.49-.43-355.49-22.35,20-64.64,64.59-110.49,116.78V263.6c0,4.55.1,8.92.32,13.07l52.26-62s-4.73,242.2-5.21,254.09c-4.61,122.16,89.71,167.8,144.77,172.85,76.08,6.87,183.36-41.51,187.14-149.53C637,408.56,581.81,372.58,532,377.53ZM314.64,508.81c16,6.34,32.23,5.43,47.48-2.55-.75,1.14-8.52,12.72-23.31,13.41C324.3,520.34,315.55,509.93,314.64,508.81Zm8.28,39a64.77,64.77,0,0,0,56.58-19.29c-.72,2-6.52,17.24-23.32,23.13C339,557.75,324.65,549,322.92,547.85Zm57.83,35.88c-15.86,9.71-32.1,4.39-34.25,3.64a67.58,67.58,0,0,0,53.25-34.06C399.56,555.36,397.43,573.51,380.75,583.73ZM420,601.4c-10.54,14.58-27,15.83-29.11,16a64.2,64.2,0,0,0,35.05-49C426.49,570.47,430.65,586.65,420,601.4Zm39.87,2.87a37.53,37.53,0,0,1-14.53,24.88c10.27-16.2,12.56-34.22,6.65-52.5A37.52,37.52,0,0,1,459.87,604.27Z"/><path class="cls-1" d="M393.73,417.7c0,4.95.13,9.7.39,14.06,50.25-10.22,73.15-60.38,73.92-62.09-1.19.94-24.91,18.24-74.31,20.21Z"/><circle class="cls-2" cx="458.29" cy="32.55" r="32.55"/><path class="cls-2" d="M432,263.59c0,81.53-32.23,107.17-32.23,107.17s83.54-24.2,83.54-132.52V93.05H432Z"/><circle class="cls-2" cx="211.11" cy="32.55" r="32.55"/><path class="cls-2" d="M269.53,370.72c-1.59-.48-34-10.51-57.93-44.18-10-14.1-18.61-32.36-22.81-55.83a184.86,184.86,0,0,1-2.74-32.47V93h51.31V263.6A269.37,269.37,0,0,0,239,294C245.4,350.09,268.28,369.68,269.53,370.72Z"/></svg>